<?xml version="1.0" encoding="UTF-8"?>
<svg id="Camada_1" xmlns="http://www.w3.org/2000/svg" version="1.1" viewBox="0 0 512 512">
  <!-- Generator: Adobe Illustrator 29.2.1, SVG Export Plug-In . SVG Version: 2.1.0 Build 116)  -->
  <defs>
    <style>
      .st0 {
        fill: #edff00;
      }
    </style>
  </defs>
  <path class="st0" d="M32,32v448h448V32H32ZM272,380c0,43.6-25.8,64.9-63.1,64.9s-53.2-17.4-63.2-38.5h0l34.3-20.8c6.6,11.7,11.6,21.6,26.1,21.6s21.9-5.4,21.9-26.5v-140.8h44v140ZM371.4,443.9c-39.1,0-64.4-17.6-76.7-42h0l34.3-19.9c9,14.7,20.8,24.6,41.5,24.6s27.6-7.7,27.6-19.8-10.4-19.5-29.7-28l-10.5-4.5c-30.4-12.9-50.5-29.2-50.5-63.5s24-54.6,61.6-54.6,46,8.3,59.9,32.7l-32.8,21.1c-7.2-12.9-15-18-27.1-18s-20.1,7.8-20.1,18,7.8,17.7,25.9,25.6l10.5,4.5c35.8,15.3,55.9,31,55.9,66.2,0,37.9-29.8,57.6-69.8,57.6Z"/>
</svg>