<?xml version="1.0" encoding="UTF-8"?>
<svg id="Camada_1" xmlns="http://www.w3.org/2000/svg" version="1.1" viewBox="0 0 24 24">
  <!-- Generator: Adobe Illustrator 29.2.1, SVG Export Plug-In . SVG Version: 2.1.0 Build 116)  -->
  <defs>
    <style>
      .st0 {
        fill: #2bf;
      }
    </style>
  </defs>
  <path class="st0" d="M18.5,9.5c-.7-.3-1.4-.7-1.9-1.3-1.1-1.4-2.8-2.2-4.6-2.2-2.5-.2-4.6,1.6-5,4,.7-1.2,2.1-1.8,3.5-1.5.7.3,1.4.7,1.9,1.4,1.1,1.4,2.8,2.2,4.6,2.1,2.5.2,4.6-1.6,5-4-.7,1.2-2.1,1.8-3.5,1.5ZM5.5,14.5c.7.3,1.4.7,1.9,1.3,1.1,1.4,2.8,2.2,4.6,2.2,2.5.2,4.6-1.6,5-4-.7,1.2-2.1,1.8-3.5,1.5-.7-.3-1.4-.7-1.9-1.4-1.1-1.4-2.8-2.2-4.6-2.1-2.5-.2-4.6,1.6-5,4,.7-1.2,2.1-1.8,3.5-1.5Z"/>
</svg>